<?xml version="1.0" encoding="UTF-8"?>
<svg xmlns="http://www.w3.org/2000/svg" xmlns:xlink="http://www.w3.org/1999/xlink" width="62px" height="62px" viewBox="0 0 62 62" version="1.1">
<g id="surface1">
<path style=" stroke:none;fill-rule:nonzero;fill:rgb(1.568628%,80.000001%,47.058824%);fill-opacity:1;" d="M 30.324219 -0.0507812 C 30.769531 -0.0507812 31.214844 -0.0585938 31.664062 -0.0664062 C 33.230469 -0.078125 34.707031 0.0273438 36.246094 0.320312 C 36.40625 0.347656 36.566406 0.378906 36.734375 0.410156 C 37.128906 0.480469 37.519531 0.554688 37.914062 0.628906 C 37.933594 4.683594 37.945312 8.742188 37.957031 12.796875 C 37.960938 14.683594 37.964844 16.566406 37.976562 18.449219 C 37.984375 20.09375 37.988281 21.734375 37.992188 23.378906 C 37.992188 24.246094 37.996094 25.117188 38 25.984375 C 38.007812 26.804688 38.007812 27.625 38.007812 28.445312 C 38.007812 28.742188 38.007812 29.042969 38.011719 29.339844 C 38.039062 31.90625 37.628906 34.113281 35.816406 36.027344 C 34.40625 37.363281 32.839844 37.917969 30.910156 38.003906 C 28.832031 37.933594 27.007812 37.085938 25.554688 35.609375 C 24.289062 33.992188 23.804688 32.328125 23.878906 30.292969 C 24.105469 28.425781 25.027344 26.683594 26.425781 25.425781 C 28.484375 23.867188 30.523438 23.878906 33.09375 23.878906 C 33.09375 19.453125 33.09375 15.03125 33.09375 10.472656 C 26.273438 10.769531 20.59375 11.984375 15.808594 17.097656 C 11.6875 21.777344 10.296875 27.359375 10.683594 33.511719 C 11.25 38.722656 14.136719 43.59375 18.136719 46.914062 C 22.082031 50.039062 27.449219 51.808594 32.484375 51.269531 C 38.167969 50.585938 43.371094 48.222656 46.988281 43.632812 C 50.128906 39.429688 51.332031 34.777344 51.359375 29.578125 C 51.363281 29.34375 51.363281 29.105469 51.367188 28.859375 C 51.375 28.082031 51.378906 27.304688 51.382812 26.527344 C 51.386719 25.984375 51.390625 25.445312 51.398438 24.902344 C 51.40625 23.625 51.417969 22.351562 51.425781 21.074219 C 51.4375 19.621094 51.449219 18.167969 51.460938 16.714844 C 51.484375 13.726562 51.503906 10.738281 51.527344 7.75 C 51.757812 7.945312 51.988281 8.140625 52.214844 8.339844 C 52.34375 8.449219 52.472656 8.558594 52.605469 8.667969 C 58.097656 13.445312 61.136719 20.828125 61.933594 27.9375 C 62.355469 33.976562 61.300781 39.601562 58.648438 45.035156 C 58.546875 45.246094 58.441406 45.460938 58.335938 45.679688 C 57.058594 48.152344 55.332031 50.363281 53.414062 52.363281 C 53.230469 52.5625 53.046875 52.761719 52.859375 52.964844 C 47.640625 58.523438 39.984375 61.652344 32.425781 62.023438 C 23.789062 62.265625 15.78125 59.335938 9.457031 53.421875 C 9.308594 53.28125 9.160156 53.140625 9.007812 52.992188 C 8.871094 52.871094 8.734375 52.75 8.597656 52.621094 C 3.441406 47.792969 0.214844 40.238281 -0.0703125 33.238281 C -0.167969 30.054688 -0.226562 26.761719 0.628906 23.667969 C 0.707031 23.386719 0.707031 23.386719 0.785156 23.097656 C 3.074219 15.101562 8.015625 8.171875 15.289062 3.980469 C 20.054688 1.421875 24.894531 -0.0351562 30.324219 -0.0507812 Z M 30.324219 -0.0507812 "/>
</g>
</svg>
